<svg width="18" height="16" viewBox="0 0 18 16" fill="none" xmlns="http://www.w3.org/2000/svg">
<path d="M9 0.5C7.88376 0.5 6.77846 0.69881 5.74719 1.08508C4.71592 1.47135 3.77889 2.03751 2.98959 2.75124C1.39553 4.19268 0.5 6.1477 0.5 8.1862C0.5 11.5835 2.9395 14.4658 6.314 15.4881C6.739 15.5496 6.875 15.3113 6.875 15.1038C6.875 14.927 6.875 14.4428 6.875 13.8048C4.5205 14.266 4.019 12.7749 4.019 12.7749C3.628 11.8833 3.0755 11.645 3.0755 11.645C2.302 11.1684 3.135 11.1838 3.135 11.1838C3.985 11.2376 4.4355 11.9755 4.4355 11.9755C5.175 13.1438 6.4245 12.7979 6.909 12.6135C6.9855 12.1139 7.2065 11.7757 7.4445 11.5835C5.5575 11.3913 3.577 10.7303 3.577 7.80189C3.577 6.94872 3.9 6.26465 4.4525 5.71893C4.3675 5.52678 4.07 4.72741 4.5375 3.68977C4.5375 3.68977 5.2515 3.48225 6.875 4.47377C7.5465 4.30467 8.2775 4.22012 9 4.22012C9.7225 4.22012 10.4535 4.30467 11.125 4.47377C12.7485 3.48225 13.4625 3.68977 13.4625 3.68977C13.93 4.72741 13.6325 5.52678 13.5475 5.71893C14.1 6.26465 14.423 6.94872 14.423 7.80189C14.423 10.738 12.434 11.3837 10.5385 11.5758C10.8445 11.8141 11.125 12.2829 11.125 12.9978V15.1038C11.125 15.3113 11.261 15.5573 11.6945 15.4881C15.069 14.4581 17.5 11.5835 17.5 8.1862C17.5 7.17684 17.2801 6.17735 16.853 5.24482C16.4258 4.31229 15.7997 3.46497 15.0104 2.75124C14.2211 2.03751 13.2841 1.47135 12.2528 1.08508C11.2215 0.69881 10.1162 0.5 9 0.5Z" fill="white"/>
</svg>
