<svg width="21" height="13" viewBox="0 0 21 13" fill="none" xmlns="http://www.w3.org/2000/svg">
<path fill-rule="evenodd" clip-rule="evenodd" d="M20.0411 1.31256C20.1801 0.844177 20.0411 0.5 19.3794 0.5H17.1914C16.6351 0.5 16.3786 0.797317 16.2395 1.12517C16.2395 1.12517 15.1268 3.8652 13.5505 5.645C13.0406 6.16023 12.8088 6.3242 12.5306 6.3242C12.3915 6.3242 12.1828 6.16023 12.1828 5.69189V1.31256C12.1828 0.7505 12.0288 0.5 11.5651 0.5H8.12678C7.77912 0.5 7.57003 0.760863 7.57003 1.0081C7.57003 1.54092 8.35813 1.6638 8.43936 3.16264V6.41789C8.43936 7.13154 8.31178 7.26097 8.03361 7.26097C7.29187 7.26097 5.48756 4.5087 4.41745 1.35938C4.20773 0.74726 3.99739 0.5 3.43819 0.5H1.25018C0.625037 0.5 0.5 0.797317 0.5 1.12517C0.5 1.71066 1.24178 4.61462 3.95387 8.45531C5.76191 11.0782 8.30933 12.5 10.6273 12.5C12.0182 12.5 12.1903 12.1842 12.1903 11.6403V9.65789C12.1903 9.02634 12.322 8.90026 12.7624 8.90026C13.0869 8.90026 13.6433 9.06423 14.9413 10.3289C16.4249 11.8277 16.6695 12.5 17.5039 12.5H19.692C20.3171 12.5 20.6297 12.1842 20.4494 11.561C20.252 10.9399 19.5438 10.0388 18.6039 8.97054C18.0939 8.36163 17.3289 7.70591 17.0971 7.37797C16.7726 6.95651 16.8654 6.76914 17.0971 6.39449C17.0971 6.39449 19.7629 2.60057 20.0411 1.31256Z" fill="white"/>
</svg>
